<svg width="128" height="128" viewBox="0 0 128 128" fill="none" xmlns="http://www.w3.org/2000/svg">
<rect width="128" height="128" rx="8" fill="#101012"/>
<g clip-path="url(#clip0_316_2026)">
<path d="M104 24C97.0212 24.0609 90.1797 25.9467 84.1553 29.47C71.7538 36.556 64.0716 49.717 64 64C78.283 63.9284 91.444 56.2462 98.53 43.8447C102.053 37.8203 103.939 30.9788 104 24Z" fill="#FCD903"/>
<path d="M24 24V64V104C31.0392 103.941 37.9381 102.026 44 98.4469C56.3162 91.3364 63.9309 78.2212 64 64V24H24Z" fill="#FCD903"/>
<path d="M64 64C64.0691 78.2212 71.6838 91.3364 84 98.4469C90.0619 102.026 96.9608 103.941 104 104C103.994 96.9157 102.106 89.9602 98.53 83.8447C91.3653 71.5627 78.219 64.0074 64 64Z" fill="#FCD903"/>
</g>
<defs>
<clipPath id="clip0_316_2026">
<rect width="80" height="80" fill="white" transform="translate(24 24)"/>
</clipPath>
</defs>
</svg>
