<svg width="49" height="48" viewBox="0 0 49 48" fill="none" xmlns="http://www.w3.org/2000/svg">
<g clip-path="url(#clip0_13_268)">
<path d="M48.5 0C44.3127 0.0365338 40.2078 1.168 36.5932 3.282C29.1523 7.53357 24.543 15.4302 24.5 24C33.0698 23.957 40.9664 19.3477 45.218 11.9068C47.332 8.29216 48.4635 4.18729 48.5 0Z" fill="white"/>
<path d="M0.5 0V24V48C4.7235 47.9646 8.86286 46.8153 12.5 44.6681C19.8897 40.4018 24.4585 32.5327 24.5 24V0H0.5Z" fill="white"/>
<path d="M24.5 24C24.5415 32.5327 29.1103 40.4018 36.5 44.6681C40.1371 46.8153 44.2765 47.9646 48.5 48C48.4962 43.7494 47.3636 39.5761 45.218 35.9068C40.9192 28.5376 33.0314 24.0045 24.5 24Z" fill="white"/>
</g>
<defs>
<clipPath id="clip0_13_268">
<rect width="48" height="48" fill="white" transform="translate(0.5)"/>
</clipPath>
</defs>
</svg>
